<?xml version="1.0" encoding="UTF-8" standalone="no"?>
<!DOCTYPE svg PUBLIC "-//W3C//DTD SVG 1.1//EN" "http://www.w3.org/Graphics/SVG/1.1/DTD/svg11.dtd">
<svg width="100%" height="100%" viewBox="0 0 856 512" version="1.1" xmlns="http://www.w3.org/2000/svg" xmlns:xlink="http://www.w3.org/1999/xlink" xml:space="preserve" xmlns:serif="http://www.serif.com/" style="fill-rule:evenodd;clip-rule:evenodd;stroke-linejoin:round;stroke-miterlimit:1.41421;">
    <g transform="matrix(4.16667,0,0,4.16667,234.359,205.45)">
        <path d="M0,0.214L0,0.107L0,0C12.395,-1.136 22.104,-11.556 22.104,-24.247C22.104,-36.938 12.395,-47.357 0,-48.493L0,-48.601L-21.207,-48.601L-21.207,-43.036L-5.921,-42.937C5.496,-41.89 14.438,-35.296 14.438,-23.606C14.438,-11.916 5.496,-4.32 -5.921,-3.273L-14.207,-3.175L-14.207,3.389L-5.921,3.487C5.496,4.534 14.438,12.13 14.438,23.82C14.438,35.51 5.496,42.105 -5.921,43.152L-21.207,43.25L-21.207,48.815L0,48.815L0,48.707C12.395,47.571 22.104,37.152 22.104,24.461C22.104,11.77 12.395,1.35 0,0.214" style="fill:rgb(14,57,81);"/>
    </g>
    <g transform="matrix(4.16667,0,0,4.16667,573.208,202.603)">
        <path d="M0,3.45L-43.26,3.45L-43.26,42.36L6.602,42.36L6.602,48.84L-50.739,48.84L-50.739,-45.39L6.602,-45.39L6.602,-37.911L-43.26,-37.911L-43.26,-4.03L0,-4.03L0,3.45Z" style="fill:rgb(14,57,81);fill-rule:nonzero;"/>
    </g>
    <g transform="matrix(4.16667,0,0,4.16667,670.156,44.6413)">
        <path d="M0,79.271L44.359,79.271L44.359,86.75L-7.544,86.75L-7.544,-7.479L0,-7.479L0,79.271Z" style="fill:rgb(14,57,81);fill-rule:nonzero;"/>
    </g>
    <g transform="matrix(4.16667,0,0,4.16667,637.786,502.311)">
        <path d="M0,0.029C0,-0.282 0.055,-0.571 0.162,-0.838C0.271,-1.106 0.426,-1.336 0.628,-1.529C0.829,-1.721 1.071,-1.874 1.354,-1.987C1.635,-2.099 1.95,-2.156 2.298,-2.156C2.646,-2.156 2.962,-2.099 3.249,-1.987C3.535,-1.874 3.779,-1.721 3.981,-1.529C4.184,-1.336 4.339,-1.106 4.447,-0.838C4.555,-0.571 4.609,-0.282 4.609,0.029C4.609,0.339 4.555,0.626 4.447,0.888C4.339,1.151 4.184,1.38 3.981,1.572C3.779,1.764 3.535,1.915 3.249,2.023C2.962,2.131 2.646,2.185 2.298,2.185C1.95,2.185 1.635,2.131 1.354,2.023C1.071,1.915 0.829,1.764 0.628,1.572C0.426,1.38 0.271,1.151 0.162,0.888C0.055,0.626 0,0.339 0,0.029" style="fill:rgb(50,190,191);fill-rule:nonzero;"/>
    </g>
    <g transform="matrix(4.16667,0,0,4.16667,690.581,462.5)">
        <path d="M0,2.649L0,8.188L3.622,8.188C4.166,8.188 4.637,8.12 5.031,7.984C5.426,7.847 5.755,7.66 6.018,7.42C6.28,7.18 6.476,6.898 6.603,6.575C6.729,6.251 6.793,5.896 6.793,5.51C6.793,5.069 6.736,4.671 6.624,4.319C6.511,3.967 6.335,3.667 6.095,3.418C5.855,3.169 5.543,2.978 5.158,2.846C4.772,2.715 4.312,2.649 3.776,2.649L0,2.649ZM0,-0.338L3.128,-0.338C4.209,-0.357 5.012,-0.585 5.538,-1.022C6.064,-1.459 6.327,-2.081 6.327,-2.889C6.327,-3.82 6.058,-4.489 5.518,-4.898C4.977,-5.306 4.124,-5.511 2.959,-5.511L0,-5.511L0,-0.338ZM-4.229,11.585L-4.229,-8.936L2.959,-8.936C4.152,-8.936 5.219,-8.823 6.158,-8.597C7.098,-8.372 7.895,-8.027 8.547,-7.561C9.2,-7.096 9.698,-6.511 10.041,-5.807C10.384,-5.102 10.556,-4.271 10.556,-3.312C10.556,-2.842 10.497,-2.391 10.38,-1.959C10.262,-1.527 10.084,-1.122 9.844,-0.747C9.604,-0.372 9.302,-0.031 8.935,0.275C8.568,0.58 8.132,0.832 7.624,1.029C8.226,1.179 8.74,1.407 9.167,1.712C9.595,2.017 9.947,2.373 10.225,2.776C10.502,3.18 10.704,3.62 10.83,4.094C10.957,4.568 11.021,5.054 11.021,5.552C11.021,7.545 10.38,9.047 9.097,10.062C7.814,11.077 5.989,11.585 3.622,11.585L-4.229,11.585Z" style="fill:rgb(50,190,191);fill-rule:nonzero;"/>
    </g>
    <g transform="matrix(-4.16667,-0,0,4.16667,2793.29,-1312.4)">
        <rect x="485.962" y="417.041" width="4.229" height="20.521" style="fill:rgb(50,190,191);"/>
    </g>
    <g transform="matrix(4.16667,0,0,4.16667,837.151,469.963)">
        <path d="M0,-0.932C0,-3.083 -0.385,-4.718 -1.155,-5.836C-1.926,-6.954 -3.025,-7.513 -4.453,-7.513C-5.882,-7.513 -6.98,-6.954 -7.751,-5.836C-8.521,-4.718 -8.907,-3.083 -8.907,-0.932L-8.907,-0.001C-8.907,1.07 -8.806,2.016 -8.604,2.839C-8.402,3.661 -8.11,4.351 -7.73,4.91C-7.35,5.469 -6.882,5.892 -6.328,6.178C-5.773,6.465 -5.14,6.608 -4.425,6.608C-2.997,6.608 -1.902,6.045 -1.142,4.918C-0.38,3.79 0,2.15 0,-0.001L0,-0.932ZM4.284,-0.001C4.284,1.568 4.073,2.975 3.65,4.219C3.228,5.464 2.633,6.519 1.867,7.383C1.102,8.248 0.184,8.913 -0.888,9.378C-1.959,9.843 -3.138,10.076 -4.425,10.076C-5.713,10.076 -6.892,9.843 -7.963,9.378C-9.034,8.913 -9.957,8.248 -10.732,7.383C-11.507,6.519 -12.111,5.464 -12.543,4.219C-12.976,2.975 -13.191,1.568 -13.191,-0.001L-13.191,-0.904C-13.191,-2.463 -12.978,-3.868 -12.55,-5.118C-12.123,-6.367 -11.523,-7.429 -10.753,-8.302C-9.982,-9.176 -9.062,-9.846 -7.991,-10.311C-6.92,-10.776 -5.74,-11.008 -4.453,-11.008C-3.166,-11.008 -1.987,-10.776 -0.916,-10.311C0.155,-9.846 1.076,-9.176 1.847,-8.302C2.617,-7.429 3.216,-6.367 3.644,-5.118C4.07,-3.868 4.284,-2.463 4.284,-0.904L4.284,-0.001Z" style="fill:rgb(50,190,191);fill-rule:nonzero;"/>
    </g>
    <g transform="matrix(-4.16667,-0,0,4.16667,1414.97,-1942.47)">
        <rect x="311.364" y="501.409" width="22.63" height="3" style="fill:rgb(50,190,191);"/>
    </g>
    <g transform="matrix(-4.16667,-0,0,4.16667,1419.84,-1871.17)">
        <rect x="306.824" y="492.853" width="32.879" height="3" style="fill:rgb(50,190,191);"/>
    </g>
    <g transform="matrix(-4.16667,-0,0,4.16667,1429.45,-2135.41)">
        <rect x="312.865" y="524.562" width="23.103" height="3" style="fill:rgb(50,190,191);"/>
    </g>
    <g transform="matrix(-4.16667,-0,0,4.16667,1420.79,-2206.7)">
        <rect x="308.854" y="533.117" width="29.046" height="3" style="fill:rgb(50,190,191);"/>
    </g>
    <g transform="matrix(-4.16667,-0,0,4.16667,1425.13,-1543.02)">
        <rect x="312.865" y="453.475" width="22.065" height="3" style="fill:rgb(50,190,191);"/>
    </g>
    <g transform="matrix(-4.16667,-0,0,4.16667,1420.79,-1471.73)">
        <rect x="308.854" y="444.921" width="29.046" height="3" style="fill:rgb(50,190,191);"/>
    </g>
    <g transform="matrix(-4.16667,-0,0,4.16667,1419.84,-1799.89)">
        <rect x="306.824" y="484.3" width="32.879" height="3" style="fill:rgb(50,190,191);"/>
    </g>
    <g transform="matrix(-4.16667,-0,0,4.16667,1419.04,-1728.58)">
        <rect x="311.364" y="475.743" width="23.606" height="3" style="fill:rgb(50,190,191);"/>
    </g>
    <g transform="matrix(4.16667,0,0,4.16667,8.76125,-0.542896)">
        <path d="M0,98.955C-1.024,98.955 -1.915,98.196 -2.053,97.153C-2.115,96.692 -3.369,85.721 12.454,73.715L12.58,73.625C12.734,73.525 28.042,63.461 29.671,51.376C29.669,51.376 29.762,50.353 29.762,49.544C29.762,48.706 29.664,47.641 29.663,47.629C28.042,35.598 12.735,25.56 12.58,25.461L12.454,25.371C-3.369,13.365 -2.115,2.392 -2.053,1.932C-1.902,0.796 -0.858,0 0.275,0.148C1.404,0.298 2.2,1.328 2.062,2.455C2.042,2.654 1.318,11.686 14.903,22.022C16.247,22.905 31.943,33.481 33.783,47.16C33.798,47.295 33.911,48.51 33.911,49.544C33.911,50.577 33.798,51.792 33.793,51.843C31.943,65.603 16.246,76.182 14.903,77.063C1.043,87.608 2.047,96.519 2.059,96.608C2.21,97.744 1.411,98.787 0.275,98.936C0.183,98.949 0.091,98.955 0,98.955" style="fill:rgb(14,57,81);fill-rule:nonzero;"/>
    </g>
    <g transform="matrix(4.16667,0,0,4.16667,50.1875,114.239)">
        <path d="M0,43.963L3.207,41.309C3.157,41.252 3.113,41.191 3.055,41.14C-1.382,37.086 -6.87,30.791 -7.797,23.908C-7.798,23.898 -7.897,22.833 -7.897,21.996C-7.897,21.186 -7.805,20.161 -7.807,20.161L-7.807,20.162C-6.864,13.17 -1.366,6.863 3.199,2.725L0.031,0C-4.974,4.617 -10.839,11.592 -11.928,19.695C-11.933,19.747 -12.045,20.962 -12.045,21.996C-12.045,23.029 -11.933,24.244 -11.918,24.378C-10.834,32.439 -4.898,39.436 0,43.963" style="fill:rgb(14,57,81);fill-rule:nonzero;"/>
    </g>
    <g transform="matrix(4.16667,0,0,4.16667,149.847,89.1804)">
        <path d="M0,-19.602C-0.149,-20.728 -1.172,-21.511 -2.303,-21.376C-3.431,-21.241 -4.238,-20.209 -4.115,-19.081C-4.107,-19 -3.365,-10.849 -14.884,-1.168C-15.042,-1.037 -15.166,-0.88 -15.274,-0.716L-12.101,1.909C1.189,-9.324 0.056,-19.187 0,-19.602" style="fill:rgb(14,57,81);fill-rule:nonzero;"/>
    </g>
    <g transform="matrix(4.16667,0,0,4.16667,100.165,411.769)">
        <path d="M0,-23.158L-3.196,-20.441C-3.179,-20.426 -3.166,-20.408 -3.148,-20.392C8.565,-10.642 7.817,-2.405 7.811,-2.347C7.661,-1.211 8.459,-0.168 9.595,-0.018C9.688,-0.006 9.779,0 9.87,0C10.895,0 11.786,-0.759 11.924,-1.801C11.979,-2.217 13.095,-11.99 0,-23.158" style="fill:rgb(14,57,81);fill-rule:nonzero;"/>
    </g>
</svg>
